<svg width="17" height="17" viewBox="0 0 17 17" fill="none" xmlns="http://www.w3.org/2000/svg">
<path fill-rule="evenodd" clip-rule="evenodd" d="M15 7.91114C15 3.38596 10.0552 0.252678 5.95907 2.32164L5.95591 2.32324L5.95591 2.32323C2.94052 3.83027 1.63039 7.67275 3.16052 10.7021C3.2607 10.9004 3.27752 11.1305 3.20726 11.3413L2.15097 14.5102L5.31983 13.4539C5.53062 13.3836 5.76074 13.4005 5.95907 13.5006C10.0062 15.5449 15.0116 12.362 15 7.91331L15 7.91114ZM16.6667 7.91021C16.666 2.17263 10.4386 -1.80675 5.20922 0.833181C1.48694 2.6946 -0.186601 7.32417 1.52001 11.1326L0.0427865 15.5643C-0.0570287 15.8637 0.0209068 16.1939 0.2441 16.4171C0.467294 16.6403 0.797433 16.7182 1.09688 16.6184L5.52833 15.1412C10.6427 17.438 16.6803 13.4608 16.6667 7.91021Z" fill="#BDBDBD"/>
</svg>
